# xmcd
#
# Track frame offsets: 
#        150
#        17038
#        33925
#        49563
#        65288
#        78175
#        90413
#        103038
#        118788
#        132725
#        145125
#        158613
#        172763
#        187675
#        203325
#        217975
#
# Disc length: 3083 seconds
#
# Revision: 0
# Processed by: cddbd v1.4PL0 Copyright (c) Steve Scherf et al.
# Submitted via: ExactAudioCopy v0.90a11
#
DISCID=bf0c0910
DTITLE=Various Artist - Mississippi Girls (1928 - 1931)
DYEAR=1900
DGENRE=
TTITLE0=Staggering Blues - Rosie Mae Moore
TTITLE1=Ha-Ha Blues - Rosie Mae Moore
TTITLE2=School Girl Blues - Rosie Mae Moore
TTITLE3=Stranger Blues - Rosie Mae Moore
TTITLE4=Bungalow Blues - Mary Butler
TTITLE5=Mary Blues - Mary Butler
TTITLE6=Electric Chair Blues - Mary Butler
TTITLE7=Mad Dog Blues - Mary Butler
TTITLE8=Down the Big Road Blues - Mattie Delaney
TTITLE9=Tallahatchie River Blues - Mattie Delaney
TTITLE10=Last Kind Words Blues - Geechie Wiley and Elvie Thomas
TTITLE11=Skinny Leg Blues - Geechie Wiley and Elvie Thomas
TTITLE12=Motherless Child Blues - Geechie Wiley and Elvie Thomas
TTITLE13=Over to My House - Geechie Wiley and Elvie Thomas
TTITLE14=Pick Poor Robin Clean - Geechie Wiley and Elvie Thomas
TTITLE15=Eagles on a Half - Geechie Wiley and Elvie Thomas
EXTD=
EXTT0=
EXTT1=
EXTT2=
EXTT3=
EXTT4=
EXTT5=
EXTT6=
EXTT7=
EXTT8=
EXTT9=
EXTT10=
EXTT11=
EXTT12=
EXTT13=
EXTT14=
EXTT15=
PLAYORDER=
